<?xml version="1.0" encoding="utf-8"?>
<!-- Generator: Adobe Illustrator 23.1.1, SVG Export Plug-In . SVG Version: 6.00 Build 0)  -->
<svg version="1.1" id="Layer_1" xmlns="http://www.w3.org/2000/svg" xmlns:xlink="http://www.w3.org/1999/xlink" x="0px" y="0px"
	 viewBox="0 0 288 432" style="enable-background:new 0 0 288 432;" xml:space="preserve">
<style type="text/css">
	.st0{fill:#FFFFFF;}
	.st1{fill:#689F63;}
	.st2{fill:#333333;}
</style>
<rect y="72" class="st0" width="288" height="288"/>
<path class="st1" d="M142.2,305.2c-0.9,0-1.8-0.2-2.6-0.7l-8.3-4.9c-1.2-0.7-0.6-0.9-0.2-1.1c1.6-0.6,2-0.7,3.7-1.7
	c0.2-0.1,0.4-0.1,0.6,0l6.3,3.8c0.2,0.1,0.6,0.1,0.7,0l24.8-14.3c0.2-0.1,0.4-0.4,0.4-0.7v-28.5c0-0.3-0.1-0.5-0.4-0.7l-24.7-14.2
	c-0.2-0.1-0.5-0.1-0.7,0l-24.7,14.2c-0.2,0.1-0.4,0.4-0.4,0.7v28.5c0,0.3,0.1,0.5,0.4,0.7l6.8,3.9c3.7,1.8,5.9-0.3,5.9-2.5v-28.2
	c0-0.4,0.3-0.7,0.7-0.7h3.1c0.4,0,0.7,0.3,0.7,0.7v28.2c0,4.9-2.7,7.7-7.3,7.7c-1.4,0-2.6,0-5.7-1.5l-6.5-3.7
	c-1.6-0.9-2.6-2.7-2.6-4.5v-28.5c0-1.8,1-3.6,2.6-4.5l24.8-14.3c1.6-0.9,3.6-0.9,5.2,0l24.7,14.3c1.6,0.9,2.6,2.6,2.6,4.5v28.5
	c0,1.8-1,3.6-2.6,4.5l-24.7,14.3C144,305,143.2,305.2,142.2,305.2"/>
<path class="st1" d="M149.9,285.5c-10.8,0-13.1-5-13.1-9.1c0-0.4,0.3-0.7,0.7-0.7h3.2c0.4,0,0.7,0.3,0.7,0.6
	c0.5,3.3,1.9,4.9,8.5,4.9c5.2,0,7.4-1.2,7.4-4c0-1.6-0.6-2.8-8.7-3.6c-6.8-0.7-10.9-2.2-10.9-7.6c0-5,4.2-8,11.3-8
	c7.9,0,11.8,2.8,12.4,8.7c0,0.2,0,0.4-0.2,0.6c-0.1,0.1-0.3,0.2-0.5,0.2h-3.2c-0.4,0-0.6-0.2-0.7-0.6c-0.8-3.4-2.6-4.5-7.7-4.5
	c-5.7,0-6.3,2-6.3,3.5c0,1.8,0.8,2.3,8.4,3.3c7.6,1,11.2,2.4,11.2,7.8C162.2,282.5,157.7,285.6,149.9,285.5"/>
<path class="st2" d="M65.6,193.5c0-1.1-0.6-2.2-1.6-2.8l-26.2-15.1c-0.4-0.3-0.9-0.4-1.4-0.4h-0.3c-0.5,0-1,0.2-1.4,0.4L8.4,190.8
	c-1,0.6-1.6,1.6-1.6,2.8l0,40.6c0,0.6,0.3,1.1,0.8,1.4c0.5,0.3,1.1,0.3,1.6,0l15.6-8.9c1-0.6,1.6-1.6,1.6-2.8v-19
	c0-1.1,0.6-2.2,1.6-2.7l6.6-3.8c0.5-0.3,1.1-0.4,1.6-0.4s1.1,0.1,1.6,0.4l6.6,3.8c1,0.6,1.6,1.6,1.6,2.7v19c0,1.1,0.6,2.2,1.6,2.8
	l15.6,8.9c0.5,0.3,1.1,0.3,1.6,0c0.5-0.3,0.8-0.8,0.8-1.4L65.6,193.5z M189.4,214.7c0,0.3-0.1,0.5-0.4,0.7l-9,5.2
	c-0.3,0.1-0.5,0.1-0.8,0l-9-5.2c-0.3-0.1-0.4-0.4-0.4-0.7v-10.4c0-0.3,0.1-0.5,0.4-0.7l9-5.2c0.3-0.1,0.6-0.1,0.8,0l9,5.2
	c0.3,0.1,0.4,0.4,0.4,0.7V214.7z M191.8,137.6c-0.5-0.3-1.1-0.3-1.6,0c-0.5,0.3-0.8,0.8-0.8,1.4v40.2c0,0.4-0.2,0.7-0.6,1
	c-0.4,0.2-0.7,0.2-1.1,0l-6.6-3.8c-1-0.6-2.2-0.6-3.2,0l-26.2,15.1c-1,0.6-1.6,1.6-1.6,2.7v30.3c0,1.1,0.6,2.2,1.6,2.7l26.2,15.2
	c1,0.6,2.2,0.6,3.2,0l26.2-15.2c1-0.6,1.6-1.6,1.6-2.7v-75.4c0-1.1-0.6-2.2-1.6-2.8L191.8,137.6z M279.2,204c1-0.6,1.6-1.6,1.6-2.7
	v-7.4c0-1.1-0.6-2.2-1.6-2.7l-26.1-15.1c-1-0.6-2.2-0.6-3.2,0l-26.2,15.1c-1,0.6-1.6,1.6-1.6,2.7v30.3c0,1.1,0.6,2.2,1.6,2.8
	l26.1,14.9c1,0.6,2.2,0.6,3.1,0l15.8-8.7c0.5-0.3,0.8-0.8,0.8-1.4c0-0.6-0.3-1.1-0.8-1.4l-26.4-15.1c-0.5-0.3-0.8-0.8-0.8-1.4v-9.5
	c0-0.6,0.3-1.1,0.8-1.4l8.2-4.7c0.5-0.3,1.1-0.3,1.6,0l8.2,4.7c0.5,0.3,0.8,0.8,0.8,1.4v7.5c0,0.6,0.3,1.1,0.8,1.4
	c0.5,0.3,1.1,0.3,1.6,0L279.2,204z"/>
<path class="st1" d="M251.2,202.6c0.2-0.1,0.4-0.1,0.6,0l5,2.9c0.2,0.1,0.3,0.3,0.3,0.5v5.8c0,0.2-0.1,0.4-0.3,0.5l-5,2.9
	c-0.2,0.1-0.4,0.1-0.6,0l-5-2.9c-0.2-0.1-0.3-0.3-0.3-0.5V206c0-0.2,0.1-0.4,0.3-0.5L251.2,202.6z"/>
<g>
	<g>
		<g>
			<path id="SVGID_1_" class="st1" d="M106,178.7l-26.1,15.1c-1,0.6-1.6,1.6-1.6,2.7v30.1c0,1.1,0.6,2.2,1.6,2.7l26.1,15.1
				c1,0.6,2.2,0.6,3.2,0l26.1-15.1c1-0.6,1.6-1.6,1.6-2.7v-30.1c0-1.1-0.6-2.2-1.6-2.7l-26.1-15c-0.5-0.3-1.1-0.4-1.6-0.4
				C107,178.3,106.5,178.4,106,178.7"/>
		</g>
	</g>
</g>
<g>
	<g>
		<g>
			<path id="SVGID_3_" class="st1" d="M79,228.5c0.3,0.3,0.6,0.6,0.9,0.8l22.4,12.9l3.7,2.2c0.6,0.3,1.2,0.4,1.8,0.4
				c0.2,0,0.4,0,0.6-0.1l27.5-50.4c-0.2-0.2-0.4-0.4-0.7-0.6l-17.1-9.9l-9-5.2c-0.3-0.1-0.5-0.3-0.8-0.3L79,228.5z"/>
		</g>
	</g>
</g>
<g>
	<g>
		<g>
			<path id="SVGID_5_" class="st1" d="M107.2,178.3c-0.4,0-0.9,0.2-1.3,0.4l-26,15l28.1,51.1c0.4,0,0.8-0.2,1.1-0.4l26.1-15.1
				c0.8-0.5,1.4-1.3,1.5-2.2l-28.6-48.9c-0.2,0-0.4,0-0.7,0C107.4,178.3,107.4,178.3,107.2,178.3"/>
		</g>
	</g>
</g>
</svg>
