<!-- Generator: Adobe Illustrator 23.0.1, SVG Export Plug-In  -->
<svg version="1.1" xmlns="http://www.w3.org/2000/svg" xmlns:xlink="http://www.w3.org/1999/xlink" x="0px" y="0px" width="100%"
	 height="100%" viewBox="0 0 630 630" preserveAspectRatio="xMidYMid meet" style="enable-background:new 0 0 630 630;" xml:space="preserve">
<style type="text/css">
	.st0{fill:#FFFFFF;}
	.st1{fill:#689F63;}
	.st2{fill:#333333;}
	.st3{clip-path:url(#SVGID_2_);}
	.st4{clip-path:url(#SVGID_4_);}
	.st5{clip-path:url(#SVGID_6_);}
	.st6{clip-path:url(#SVGID_8_);}
	.st7{clip-path:url(#SVGID_10_);}
	.st8{clip-path:url(#SVGID_12_);}
</style>
<defs>
</defs>
<rect class="st0" width="630" height="630"/>
<path class="st1" d="M311.16,510.1c-2.02,0-3.94-0.48-5.67-1.54l-18.08-10.68c-2.69-1.54-1.35-2.02-0.48-2.31
	c3.56-1.25,4.33-1.54,8.18-3.75c0.38-0.19,0.96-0.19,1.35,0.1l13.85,8.27c0.48,0.29,1.25,0.29,1.64,0l54.15-31.26
	c0.48-0.29,0.87-0.87,0.87-1.44v-62.42c0-0.58-0.29-1.15-0.87-1.44l-54.06-31.16c-0.48-0.29-1.15-0.29-1.64,0l-54.06,31.16
	c-0.48,0.29-0.87,0.87-0.87,1.44v62.42c0,0.58,0.29,1.15,0.87,1.44l14.81,8.56c8.08,4.04,12.99-0.67,12.99-5.48v-61.66
	c0-0.87,0.67-1.54,1.54-1.54h6.83c0.87,0,1.54,0.67,1.54,1.54v61.66c0,10.77-5.87,16.93-16.06,16.93c-3.17,0-5.58,0-12.5-3.37
	l-14.24-8.18c-3.46-2.02-5.67-5.87-5.67-9.91v-62.42c0-4.04,2.21-7.89,5.67-9.91l54.15-31.26c3.46-1.92,7.98-1.92,11.35,0
	l54.06,31.26c3.46,2.02,5.67,5.77,5.67,9.91v62.42c0,4.04-2.21,7.79-5.67,9.91l-54.06,31.26C315.1,509.62,313.18,510.1,311.16,510.1
	"/>
<path class="st1" d="M327.89,467.1c-23.66,0-28.66-10.87-28.66-20.01c0-0.87,0.67-1.54,1.54-1.54h7.02c0.77,0,1.44,0.58,1.54,1.35
	c1.06,7.12,4.23,10.68,18.56,10.68c11.45,0,16.26-2.6,16.26-8.66c0-3.46-1.35-6.06-19.14-7.79c-14.81-1.44-23.95-4.71-23.95-16.54
	c0-10.97,9.23-17.41,24.62-17.41c17.31,0,25.87,6.06,27.03,18.95c0,0.48-0.1,0.87-0.38,1.25c-0.29,0.29-0.67,0.48-1.15,0.48h-7.02
	c-0.77,0-1.35-0.48-1.54-1.25c-1.73-7.5-5.77-9.91-16.93-9.91c-12.41,0-13.85,4.33-13.85,7.6c0,3.94,1.73,5.1,18.47,7.31
	c16.64,2.21,24.53,5.29,24.53,17.02C354.83,460.37,345.01,467.2,327.89,467.1"/>
<path class="st2" d="M143.6,265.79c0-2.5-1.35-4.81-3.46-6.06l-57.42-32.99c-0.96-0.58-2.02-0.87-3.17-0.87h-0.58
	c-1.06,0-2.21,0.38-3.17,0.87l-57.33,33.09c-2.12,1.25-3.46,3.56-3.46,6.06l0.1,88.88c0,1.25,0.67,2.4,1.73,2.98
	c1.06,0.67,2.4,0.67,3.46,0l34.15-19.53c2.12-1.25,3.46-3.56,3.46-6.06V290.6c0-2.5,1.35-4.81,3.46-5.96l14.52-8.37
	c1.06-0.58,2.31-0.96,3.46-0.96c1.15,0,2.4,0.29,3.46,0.96l14.52,8.37c2.12,1.25,3.46,3.56,3.46,5.96v41.55
	c0,2.5,1.35,4.71,3.46,6.06l34.05,19.53c1.06,0.67,2.4,0.67,3.46,0c1.06-0.58,1.73-1.73,1.73-2.98L143.6,265.79z M414.36,312.05
	c0,0.58-0.29,1.15-0.87,1.54l-19.72,11.35c-0.58,0.29-1.15,0.29-1.73,0l-19.72-11.35c-0.58-0.29-0.87-0.87-0.87-1.54v-22.8
	c0-0.58,0.29-1.15,0.87-1.54l19.72-11.35c0.58-0.29,1.25-0.29,1.73,0l19.72,11.35c0.58,0.29,0.87,0.87,0.87,1.54V312.05z
	 M419.65,143.54c-1.06-0.58-2.4-0.58-3.46,0s-1.73,1.73-1.73,2.98v88.01c0,0.87-0.48,1.64-1.25,2.12c-0.77,0.48-1.64,0.48-2.4,0
	l-14.33-8.27c-2.12-1.25-4.81-1.25-6.93,0l-57.42,33.09c-2.12,1.25-3.46,3.56-3.46,5.96v66.27c0,2.5,1.35,4.71,3.46,5.96
	l57.42,33.18c2.12,1.25,4.81,1.25,6.93,0l57.42-33.18c2.12-1.25,3.46-3.56,3.46-5.96V168.74c0-2.5-1.35-4.81-3.56-6.06
	L419.65,143.54z M610.78,288.78c2.12-1.25,3.46-3.56,3.46-5.96v-16.16c0-2.5-1.35-4.71-3.46-5.96l-57.04-33.09
	c-2.12-1.25-4.81-1.25-6.93,0l-57.42,33.09c-2.12,1.25-3.46,3.56-3.46,5.96v66.27c0,2.5,1.35,4.81,3.46,6.06l57.04,32.51
	c2.12,1.25,4.71,1.25,6.83,0l34.53-19.14c1.06-0.58,1.73-1.73,1.73-2.98c0-1.25-0.67-2.4-1.73-2.98l-57.71-33.09
	c-1.06-0.58-1.73-1.73-1.73-2.98v-20.78c0-1.25,0.67-2.4,1.73-2.98l17.99-10.39c1.06-0.58,2.4-0.58,3.46,0l17.99,10.39
	c1.06,0.58,1.73,1.73,1.73,2.98v16.35c0,1.25,0.67,2.4,1.73,2.98s2.4,0.58,3.46,0L610.78,288.78z"/>
<path class="st1" d="M549.41,285.6c0.38-0.19,0.96-0.19,1.35,0l10.97,6.35c0.38,0.19,0.67,0.67,0.67,1.15v12.7
	c0,0.48-0.29,0.87-0.67,1.15l-10.97,6.35c-0.38,0.19-0.96,0.19-1.35,0l-10.97-6.35c-0.38-0.19-0.67-0.67-0.67-1.15v-12.7
	c0-0.48,0.29-0.87,0.67-1.15L549.41,285.6z"/>
<g>
	<g>
		<defs>
			<path id="SVGID_1_" d="M231.9,233.33l-57.13,32.99c-2.12,1.25-3.46,3.46-3.46,5.96v65.89c0,2.5,1.35,4.71,3.46,5.96l57.04,32.99
				c2.12,1.25,4.81,1.25,6.93,0l57.04-32.99c2.12-1.25,3.46-3.46,3.46-5.96v-65.89c0-2.5-1.35-4.71-3.46-5.96l-57.04-32.9
				c-1.06-0.58-2.31-0.96-3.46-0.96C234.11,232.47,232.86,232.76,231.9,233.33"/>
		</defs>
		<use xlink:href="#SVGID_1_"  style="overflow:visible;fill:#689F63;"/>
		<clipPath id="SVGID_2_">
			<use xlink:href="#SVGID_1_"  style="overflow:visible;"/>
		</clipPath>
		<g transform="translate(-78.306 -164.016)" class="st3">
			<path class="st1" d="M510.56,582.51l-160.82-78.87l-82.43,168.23l160.82,78.87L510.56,582.51z"/>
		</g>
	</g>
</g>
<g>
	<g>
		<defs>
			<path id="SVGID_3_" d="M172.75,342.41c0.58,0.67,1.25,1.35,2.02,1.83l48.96,28.28l8.18,4.71c1.25,0.67,2.6,0.96,3.94,0.87
				c0.48,0,0.87-0.1,1.35-0.29l60.21-110.23c-0.48-0.48-0.96-0.96-1.64-1.25l-37.32-21.64l-19.72-11.35
				c-0.58-0.29-1.15-0.58-1.83-0.67L172.75,342.41z"/>
		</defs>
		<use xlink:href="#SVGID_3_"  style="overflow:visible;fill:#689F63;"/>
		<clipPath id="SVGID_4_">
			<use xlink:href="#SVGID_3_"  style="overflow:visible;"/>
		</clipPath>
		<g transform="translate(-78.306 -164.016)" class="st4">
			<path class="st1" d="M256.82,605.78l113.6,153.71l150.15-111l-113.6-153.61L256.82,605.78z"/>
		</g>
	</g>
</g>
<g>
	<g>
		<defs>
			<path id="SVGID_5_" d="M234.59,232.47c-0.96,0.1-1.92,0.38-2.79,0.87l-56.94,32.8L236.32,378c0.87-0.1,1.73-0.38,2.4-0.87
				l57.04-32.99c1.73-1.06,2.98-2.79,3.37-4.71l-62.52-106.86c-0.48-0.1-0.96-0.1-1.44-0.1
				C234.98,232.47,234.88,232.47,234.59,232.47"/>
		</defs>
		<use xlink:href="#SVGID_5_"  style="overflow:visible;fill:#689F63;"/>
		<clipPath id="SVGID_6_">
			<use xlink:href="#SVGID_5_"  style="overflow:visible;"/>
		</clipPath>
		<g transform="translate(-78.306 -164.016)" class="st5">
			<path class="st1" d="M328.58,554.23v145.53h124.18V554.23H328.58z"/>
		</g>
	</g>
</g>
</svg>
